<svg xmlns="http://www.w3.org/2000/svg" width="1200" height="630" viewBox="0 0 1200 630">
  <defs>
    <!-- Title gradient -->
    <linearGradient id="titleGrad" x1="0%" y1="0%" x2="100%" y2="0%">
      <stop offset="0%" style="stop-color:#00e5ff"/>
      <stop offset="50%" style="stop-color:#a855f7"/>
      <stop offset="100%" style="stop-color:#ff2d95"/>
    </linearGradient>

    <!-- Cyan glow filter -->
    <filter id="cyanGlow" x="-50%" y="-50%" width="200%" height="200%">
      <feGaussianBlur in="SourceGraphic" stdDeviation="8" result="blur"/>
      <feColorMatrix in="blur" type="matrix"
        values="0 0 0 0 0  0 1 0 0 0.9  0 0 1 0 1  0 0 0 1 0" result="colorBlur"/>
      <feMerge>
        <feMergeNode in="colorBlur"/>
        <feMergeNode in="SourceGraphic"/>
      </feMerge>
    </filter>

    <!-- Stronger glow for timer -->
    <filter id="timerGlow" x="-50%" y="-50%" width="200%" height="200%">
      <feGaussianBlur in="SourceGraphic" stdDeviation="12" result="blur1"/>
      <feGaussianBlur in="SourceGraphic" stdDeviation="4" result="blur2"/>
      <feColorMatrix in="blur1" type="matrix"
        values="0 0 0 0 0  0 1 0 0 0.9  0 0 1 0 1  0 0 0 0.6 0" result="colorBlur1"/>
      <feColorMatrix in="blur2" type="matrix"
        values="0 0 0 0 0  0 1 0 0 0.9  0 0 1 0 1  0 0 0 0.8 0" result="colorBlur2"/>
      <feMerge>
        <feMergeNode in="colorBlur1"/>
        <feMergeNode in="colorBlur2"/>
        <feMergeNode in="SourceGraphic"/>
      </feMerge>
    </filter>

    <!-- Pink glow -->
    <filter id="pinkGlow" x="-50%" y="-50%" width="200%" height="200%">
      <feGaussianBlur in="SourceGraphic" stdDeviation="6" result="blur"/>
      <feColorMatrix in="blur" type="matrix"
        values="1 0 0 0 0  0 0 0 0 0  0 0 0.6 0 0.4  0 0 0 0.7 0" result="colorBlur"/>
      <feMerge>
        <feMergeNode in="colorBlur"/>
        <feMergeNode in="SourceGraphic"/>
      </feMerge>
    </filter>

    <!-- Subtle title glow -->
    <filter id="titleGlow" x="-20%" y="-20%" width="140%" height="140%">
      <feGaussianBlur in="SourceGraphic" stdDeviation="6" result="blur"/>
      <feMerge>
        <feMergeNode in="blur"/>
        <feMergeNode in="SourceGraphic"/>
      </feMerge>
    </filter>

    <!-- Background radial glow -->
    <radialGradient id="bgGlow" cx="50%" cy="45%" r="50%">
      <stop offset="0%" style="stop-color:#0d1b2a; stop-opacity:1"/>
      <stop offset="100%" style="stop-color:#0a0a0f; stop-opacity:1"/>
    </radialGradient>

    <!-- Scanline pattern -->
    <pattern id="scanlines" width="4" height="4" patternUnits="userSpaceOnUse">
      <rect width="4" height="2" fill="rgba(255,255,255,0.015)"/>
    </pattern>
  </defs>

  <!-- Background -->
  <rect width="1200" height="630" fill="#0a0a0f"/>
  <rect width="1200" height="630" fill="url(#bgGlow)"/>
  <rect width="1200" height="630" fill="url(#scanlines)"/>

  <!-- Decorative grid lines -->
  <g opacity="0.06" stroke="#00e5ff" stroke-width="0.5">
    <line x1="0" y1="105" x2="1200" y2="105"/>
    <line x1="0" y1="210" x2="1200" y2="210"/>
    <line x1="0" y1="315" x2="1200" y2="315"/>
    <line x1="0" y1="420" x2="1200" y2="420"/>
    <line x1="0" y1="525" x2="1200" y2="525"/>
    <line x1="200" y1="0" x2="200" y2="630"/>
    <line x1="400" y1="0" x2="400" y2="630"/>
    <line x1="600" y1="0" x2="600" y2="630"/>
    <line x1="800" y1="0" x2="800" y2="630"/>
    <line x1="1000" y1="0" x2="1000" y2="630"/>
  </g>

  <!-- Decorative corner brackets -->
  <g stroke="#00e5ff" stroke-width="2" fill="none" opacity="0.3">
    <!-- Top left -->
    <polyline points="30,60 30,30 60,30"/>
    <!-- Top right -->
    <polyline points="1140,30 1170,30 1170,60"/>
    <!-- Bottom left -->
    <polyline points="30,570 30,600 60,600"/>
    <!-- Bottom right -->
    <polyline points="1140,600 1170,600 1170,570"/>
  </g>

  <!-- Stopwatch icon -->
  <g transform="translate(600, 295)" filter="url(#cyanGlow)">
    <!-- Outer ring -->
    <circle cx="0" cy="0" r="90" fill="none" stroke="#00e5ff" stroke-width="2.5" opacity="0.25"/>
    <!-- Tick marks -->
    <g stroke="#00e5ff" stroke-width="1.5" opacity="0.2">
      <line x1="0" y1="-85" x2="0" y2="-78"/>
      <line x1="42" y1="-73.6" x2="39" y2="-67.5"/>
      <line x1="73.6" y1="-42" x2="67.5" y2="-39"/>
      <line x1="85" y1="0" x2="78" y2="0"/>
      <line x1="73.6" y1="42" x2="67.5" y2="39"/>
      <line x1="42" y1="73.6" x2="39" y2="67.5"/>
      <line x1="0" y1="85" x2="0" y2="78"/>
      <line x1="-42" y1="73.6" x2="-39" y2="67.5"/>
      <line x1="-73.6" y1="42" x2="-67.5" y2="39"/>
      <line x1="-85" y1="0" x2="-78" y2="0"/>
      <line x1="-73.6" y1="-42" x2="-67.5" y2="-39"/>
      <line x1="-42" y1="-73.6" x2="-39" y2="-67.5"/>
    </g>
    <!-- Button on top -->
    <rect x="-6" y="-104" width="12" height="16" rx="3" fill="none" stroke="#00e5ff" stroke-width="2" opacity="0.3"/>
    <!-- Side button -->
    <rect x="60" y="-78" width="14" height="8" rx="2" fill="none" stroke="#00e5ff" stroke-width="1.5" opacity="0.2" transform="rotate(30)"/>
  </g>

  <!-- Animated arc on stopwatch -->
  <g transform="translate(600, 295)">
    <circle cx="0" cy="0" r="90" fill="none" stroke="#ff2d95" stroke-width="3"
      stroke-dasharray="140 425" stroke-dashoffset="-40" opacity="0.4" stroke-linecap="round"/>
  </g>

  <!-- Title -->
  <text x="600" y="200" text-anchor="middle" font-family="'Noto Sans TC', 'PingFang TC', 'Microsoft JhengHei', sans-serif"
    font-size="88" font-weight="900" fill="url(#titleGrad)" filter="url(#titleGlow)"
    letter-spacing="8">千分之一秒</text>

  <!-- Timer display -->
  <text x="600" y="330" text-anchor="middle" font-family="'SF Mono', 'Fira Code', 'Cascadia Code', 'Consolas', monospace"
    font-size="96" font-weight="700" fill="#00e5ff" filter="url(#timerGlow)"
    letter-spacing="12">0.000</text>

  <!-- Unit label -->
  <text x="600" y="365" text-anchor="middle" font-family="monospace"
    font-size="18" fill="#00e5ff" opacity="0.4" letter-spacing="6">SECONDS</text>

  <!-- Subtitle -->
  <text x="600" y="430" text-anchor="middle" font-family="'Noto Sans TC', 'PingFang TC', 'Microsoft JhengHei', sans-serif"
    font-size="30" font-weight="500" fill="#ff2d95" filter="url(#pinkGlow)" opacity="0.9"
    letter-spacing="3">只有 0.01% 的人拿到 SSS 級</text>

  <!-- SSS badge -->
  <g transform="translate(600, 475)">
    <rect x="-50" y="-18" width="100" height="36" rx="6" fill="none" stroke="#ffd700" stroke-width="1.5" opacity="0.5"/>
    <text x="0" y="8" text-anchor="middle" font-family="monospace" font-size="24" font-weight="900"
      fill="#ffd700" opacity="0.7" letter-spacing="8">SSS</text>
  </g>

  <!-- Bottom CTA text -->
  <text x="600" y="560" text-anchor="middle" font-family="'Noto Sans TC', 'PingFang TC', 'Microsoft JhengHei', sans-serif"
    font-size="28" font-weight="400" fill="rgba(255,255,255,0.6)" letter-spacing="4">你是前幾%？</text>

  <!-- Decorative floating particles -->
  <g opacity="0.15">
    <circle cx="150" cy="150" r="2" fill="#00e5ff"/>
    <circle cx="1050" cy="200" r="1.5" fill="#ff2d95"/>
    <circle cx="200" cy="450" r="1" fill="#00e5ff"/>
    <circle cx="1000" cy="500" r="2" fill="#a855f7"/>
    <circle cx="350" cy="100" r="1.5" fill="#00e5ff"/>
    <circle cx="850" cy="550" r="1" fill="#ff2d95"/>
    <circle cx="100" cy="350" r="1.5" fill="#a855f7"/>
    <circle cx="1100" cy="400" r="2" fill="#00e5ff"/>
    <circle cx="500" cy="80" r="1" fill="#ff2d95"/>
    <circle cx="700" cy="580" r="1.5" fill="#a855f7"/>
  </g>

  <!-- Horizontal neon accent lines -->
  <line x1="100" y1="240" x2="440" y2="240" stroke="#00e5ff" stroke-width="1" opacity="0.15"/>
  <line x1="760" y1="240" x2="1100" y2="240" stroke="#00e5ff" stroke-width="1" opacity="0.15"/>
  <line x1="200" y1="500" x2="450" y2="500" stroke="#ff2d95" stroke-width="1" opacity="0.1"/>
  <line x1="750" y1="500" x2="1000" y2="500" stroke="#ff2d95" stroke-width="1" opacity="0.1"/>
</svg>